<svg width="31" height="31" viewBox="0 0 31 31" fill="none" xmlns="http://www.w3.org/2000/svg">
<g id="alarm">
<path id="Vector" d="M27.8998 25.7204L26.9311 24.2188C26.7373 23.9282 26.6404 23.6375 26.6404 23.2985V13.2235C26.6404 10.3657 25.4295 7.70161 23.2014 5.71567C21.4092 4.11724 19.0842 3.10005 16.6139 2.9063V1.93755C16.6139 1.3563 16.1295 0.823486 15.4998 0.823486C14.9186 0.823486 14.3857 1.30786 14.3857 1.93755V2.85786C14.2889 2.85786 14.192 2.85786 14.0951 2.9063C8.47637 3.53599 4.2623 8.04067 4.2623 13.4172V23.2985C4.21387 23.7829 4.11699 24.025 4.02012 24.1704L3.0998 25.7204C2.80918 26.2047 2.80918 26.786 3.0998 27.2704C3.39043 27.7063 3.8748 27.9969 4.40762 27.9969H14.4342V29.0625C14.4342 29.6438 14.9186 30.1766 15.5482 30.1766C16.1295 30.1766 16.6623 29.6922 16.6623 29.0625V27.9969H26.6404C27.1732 27.9969 27.6576 27.7063 27.9482 27.2704C28.2389 26.786 28.2389 26.2047 27.8998 25.7204ZM5.57012 25.8172L5.90918 25.236C6.1998 24.7516 6.34512 24.1704 6.44199 23.4922V13.4172C6.44199 9.15474 9.83262 5.57036 14.3373 5.08599C17.0982 4.79536 19.8107 5.6188 21.7967 7.36255C23.5404 8.91255 24.5092 10.9954 24.5092 13.2235V23.2985C24.5092 24.025 24.7029 24.7032 25.1389 25.3813L25.4295 25.8172H5.57012Z" fill="#1AC52B"/>
</g>
</svg>
