         <svg xmlns="http://www.w3.org/2000/svg" width="35" height="22" viewBox="0 0 35 22" fill="none">
<path d="M32.7937 9.67505H1.29375C0.61875 9.67505 0 10.2375 0 10.9688C0 11.6438 0.5625 12.2626 1.29375 12.2626H32.7937C33.4687 12.2626 34.0875 11.7 34.0875 10.9688C34.0875 10.2375 33.4687 9.67505 32.7937 9.67505Z" fill="#161616"/>
<path d="M32.7937 19.2375H1.29375C0.61875 19.2375 0 19.8 0 20.5313C0 21.2625 0.5625 21.8251 1.29375 21.8251H32.7937C33.4687 21.8251 34.0875 21.2625 34.0875 20.5313C34.0875 19.8 33.4687 19.2375 32.7937 19.2375Z" fill="#161616"/>
<path d="M1.29375 2.5875H32.7937C33.4687 2.5875 34.0875 2.025 34.0875 1.29375C34.0875 0.5625 33.525 0 32.7937 0H1.29375C0.61875 0 0 0.5625 0 1.29375C0 2.025 0.61875 2.5875 1.29375 2.5875Z" fill="#161616"/>
</svg>