<svg width="26" height="30" viewBox="0 0 26 30" fill="none" xmlns="http://www.w3.org/2000/svg">
<g id="Lock 2">
<path id="Vector" fill-rule="evenodd" clip-rule="evenodd" d="M13.1446 1C8.85938 1 5.38554 4.47384 5.38554 8.75904V10.2619C5.38554 10.352 5.39733 10.4394 5.41944 10.5226C3.48158 11.2347 1.97111 12.798 1.33022 14.7705C1 15.7868 1 17.0426 1 19.5542C1 22.0658 1 23.3216 1.33022 24.3379C1.99762 26.392 3.60801 28.0024 5.66205 28.6698C6.67837 29 7.93416 29 10.4458 29H15.8434C18.355 29 19.6108 29 20.6271 28.6698C22.6811 28.0024 24.2915 26.392 24.9589 24.3379C25.2892 23.3216 25.2892 22.0658 25.2892 19.5542C25.2892 17.0426 25.2892 15.7868 24.9589 14.7705C24.318 12.798 22.8076 11.2347 20.8697 10.5226C20.8918 10.4394 20.9036 10.352 20.9036 10.2619V8.75904C20.9036 4.47384 17.4298 1 13.1446 1ZM15.8434 10.1084C17.1459 10.1084 18.1107 10.1084 18.8795 10.1545V8.75904C18.8795 5.59172 16.3119 3.0241 13.1446 3.0241C9.97726 3.0241 7.40964 5.59172 7.40964 8.75904V10.1545C8.17843 10.1084 9.14323 10.1084 10.4458 10.1084H15.8434Z" stroke="black"/>
</g>
</svg>
