<svg width="36" height="45" viewBox="0 0 36 45" fill="none" xmlns="http://www.w3.org/2000/svg">
<path id="Vector" d="M18 24.7489C17.4033 24.7489 16.831 24.986 16.409 25.408C15.9871 25.83 15.75 26.4023 15.75 26.9991V33.7494C15.75 34.3462 15.9871 34.9185 16.409 35.3405C16.831 35.7625 17.4033 35.9995 18 35.9995C18.5967 35.9995 19.169 35.7625 19.591 35.3405C20.0129 34.9185 20.25 34.3462 20.25 33.7494V26.9991C20.25 26.4023 20.0129 25.83 19.591 25.408C19.169 24.986 18.5967 24.7489 18 24.7489ZM29.25 15.7485H11.25V11.2482C11.2467 9.91207 11.64 8.605 12.3801 7.49255C13.1201 6.3801 14.1737 5.51232 15.4073 4.9991C16.6409 4.48588 17.999 4.35031 19.3097 4.60957C20.6204 4.86883 21.8247 5.51125 22.77 6.45546C23.6159 7.31966 24.2209 8.39017 24.525 9.56063C24.5989 9.84725 24.7285 10.1165 24.9064 10.3531C25.0843 10.5896 25.3071 10.7888 25.562 10.9392C25.8169 11.0896 26.0989 11.1884 26.392 11.2298C26.685 11.2713 26.9834 11.2546 27.27 11.1807C27.5566 11.1068 27.8259 10.9772 28.0624 10.7993C28.2989 10.6214 28.4981 10.3986 28.6485 10.1437C28.7989 9.88876 28.8977 9.60672 28.9391 9.31364C28.9806 9.02056 28.9639 8.72219 28.89 8.43557C28.3774 6.48877 27.3608 4.71148 25.9425 3.2828C24.3679 1.71304 22.3635 0.645063 20.1824 0.213731C18.0013 -0.217601 15.7413 0.00705057 13.6878 0.859319C11.6343 1.71159 9.87931 3.15325 8.64452 5.00228C7.40972 6.8513 6.75047 9.02476 6.75 11.2482V15.7485C4.95979 15.7485 3.2429 16.4597 1.97703 17.7256C0.711159 18.9915 0 20.7085 0 22.4988V38.2496C0 40.04 0.711159 41.7569 1.97703 43.0229C3.2429 44.2888 4.95979 45 6.75 45H29.25C31.0402 45 32.7571 44.2888 34.023 43.0229C35.2888 41.7569 36 40.04 36 38.2496V22.4988C36 20.7085 35.2888 18.9915 34.023 17.7256C32.7571 16.4597 31.0402 15.7485 29.25 15.7485ZM31.5 38.2496C31.5 38.8464 31.2629 39.4187 30.841 39.8407C30.419 40.2627 29.8467 40.4998 29.25 40.4998H6.75C6.15326 40.4998 5.58097 40.2627 5.15901 39.8407C4.73705 39.4187 4.5 38.8464 4.5 38.2496V22.4988C4.5 21.902 4.73705 21.3297 5.15901 20.9077C5.58097 20.4858 6.15326 20.2487 6.75 20.2487H29.25C29.8467 20.2487 30.419 20.4858 30.841 20.9077C31.2629 21.3297 31.5 21.902 31.5 22.4988V38.2496Z" fill="white"/>
</svg>
