<svg width="34" height="31" viewBox="0 0 34 31" fill="none" xmlns="http://www.w3.org/2000/svg">
<path id="Vector" d="M0.455566 28.1094L9.479 20.7813C5.76025 15.6953 6.14307 8.42188 10.7915 3.82813C13.2524 1.36719 16.5337 0 20.0337 0C23.5337 0 26.8149 1.36719 29.2759 3.82813C34.3618 8.91406 34.3618 17.2266 29.2759 22.3125C26.8149 24.7734 23.5337 26.1406 20.0337 26.1406C16.6978 26.1406 13.5806 24.8828 11.1196 22.6406L1.98682 30.0234C1.76807 30.1875 1.49463 30.2969 1.22119 30.2969C0.838379 30.2969 0.510254 30.1328 0.291504 29.8594C-0.145996 29.3125 -0.0913086 28.5469 0.455566 28.1094ZM20.0337 23.6797C22.8774 23.6797 25.5024 22.5859 27.5259 20.5625C31.6821 16.4063 31.6821 9.67969 27.5259 5.57813C25.5024 3.55469 22.8774 2.46094 20.0337 2.46094C17.1899 2.46094 14.5649 3.55469 12.5415 5.57813C8.38525 9.73438 8.38525 16.4609 12.5415 20.5625C14.5103 22.5859 17.1899 23.6797 20.0337 23.6797Z" fill="#767676"/>
</svg>
