<svg width="25" height="31" viewBox="0 0 25 31" fill="none" xmlns="http://www.w3.org/2000/svg">
<g id="Group 72">
<g id="Shape 3" filter="url(#filter0_b_412_601)">
<circle cx="12.5" cy="7.5" r="7" stroke="black"/>
</g>
<g id="Shape 4" filter="url(#filter1_b_412_601)">
<path d="M0.500001 24.5714C0.500001 27.8457 3.15431 30.5 6.42857 30.5L18.5714 30.5C21.8457 30.5 24.5 27.8457 24.5 24.5714C24.5 20.1137 20.8863 16.5 16.4285 16.5L16.4122 16.5L16.3959 16.5L16.3796 16.5L16.3634 16.5L16.3471 16.5L16.3309 16.5L16.3146 16.5L16.2984 16.5L16.2822 16.5L16.266 16.5L16.2498 16.5L16.2336 16.5L16.2174 16.5L16.2013 16.5L16.1851 16.5L16.169 16.5L16.1529 16.5L16.1367 16.5L16.1206 16.5L16.1045 16.5L16.0885 16.5L16.0724 16.5L16.0563 16.5L16.0403 16.5L16.0242 16.5L16.0082 16.5L15.9922 16.5L15.9761 16.5L15.9601 16.5L15.9441 16.5L15.9282 16.5L15.9122 16.5L15.8962 16.5L15.8803 16.5L15.8643 16.5L15.8484 16.5L15.8324 16.5L15.8165 16.5L15.8006 16.5L15.7847 16.5L15.7688 16.5L15.753 16.5L15.7371 16.5L15.7212 16.5L15.7054 16.5L15.6895 16.5L15.6737 16.5L15.6579 16.5L15.6421 16.5L15.6263 16.5L15.6105 16.5L15.5947 16.5L15.5789 16.5L15.5631 16.5L15.5474 16.5L15.5316 16.5L15.5159 16.5L15.5002 16.5L15.4844 16.5L15.4687 16.5L15.453 16.5L15.4373 16.5L15.4216 16.5L15.4059 16.5L15.3903 16.5L15.3746 16.5L15.359 16.5L15.3433 16.5L15.3277 16.5L15.312 16.5L15.2964 16.5L15.2808 16.5L15.2652 16.5L15.2496 16.5L15.234 16.5L15.2184 16.5L15.2028 16.5L15.1873 16.5L15.1717 16.5L15.1562 16.5L15.1406 16.5L15.1251 16.5L15.1096 16.5L15.094 16.5L15.0785 16.5L15.063 16.5L15.0475 16.5L15.032 16.5L15.0166 16.5L15.0011 16.5L14.9856 16.5L14.9701 16.5L14.9547 16.5L14.9392 16.5L14.9238 16.5L14.9084 16.5L14.893 16.5L14.8775 16.5L14.8621 16.5L14.8467 16.5L14.8313 16.5L14.8159 16.5L14.8005 16.5L14.7852 16.5L14.7698 16.5L14.7544 16.5L14.7391 16.5L14.7237 16.5L14.7084 16.5L14.693 16.5L14.6777 16.5L14.6624 16.5L14.6471 16.5L14.6318 16.5L14.6165 16.5L14.6012 16.5L14.5859 16.5L14.5706 16.5L14.5553 16.5L14.54 16.5L14.5248 16.5L14.5095 16.5L14.4942 16.5L14.479 16.5L14.4637 16.5L14.4485 16.5L14.4333 16.5L14.418 16.5L14.4028 16.5L14.3876 16.5L14.3724 16.5L14.3572 16.5L14.342 16.5L14.3268 16.5L14.3116 16.5L14.2964 16.5L14.2812 16.5L14.2661 16.5L14.2509 16.5L14.2357 16.5L14.2206 16.5L14.2054 16.5L14.1903 16.5L14.1751 16.5L14.16 16.5L14.1448 16.5L14.1297 16.5L14.1146 16.5L14.0995 16.5L14.0844 16.5L14.0693 16.5L14.0541 16.5L14.039 16.5L14.024 16.5L14.0089 16.5L13.9938 16.5L13.9787 16.5L13.9636 16.5L13.9485 16.5L13.9335 16.5L13.9184 16.5L13.9033 16.5L13.8883 16.5L13.8732 16.5L13.8582 16.5L13.8431 16.5L13.8281 16.5L13.8131 16.5L13.798 16.5L13.783 16.5L13.768 16.5L13.753 16.5L13.7379 16.5L13.7229 16.5L13.7079 16.5L13.6929 16.5L13.6779 16.5L13.6629 16.5L13.6479 16.5L13.6329 16.5L13.6179 16.5L13.6029 16.5L13.5879 16.5L13.573 16.5L13.558 16.5L13.543 16.5L13.528 16.5L13.5131 16.5L13.4981 16.5L13.4832 16.5L13.4682 16.5L13.4532 16.5L13.4383 16.5L13.4233 16.5L13.4084 16.5L13.3934 16.5L13.3785 16.5L13.3636 16.5L13.3486 16.5L13.3337 16.5L13.3188 16.5L13.3038 16.5L13.2889 16.5L13.274 16.5L13.2591 16.5L13.2441 16.5L13.2292 16.5L13.2143 16.5L13.1994 16.5L13.1845 16.5L13.1696 16.5L13.1547 16.5L13.1397 16.5L13.1248 16.5L13.1099 16.5L13.095 16.5L13.0801 16.5L13.0652 16.5L13.0503 16.5L13.0355 16.5L13.0206 16.5L13.0057 16.5L12.9908 16.5L12.9759 16.5L12.961 16.5L12.9461 16.5L12.9312 16.5L12.9164 16.5L12.9015 16.5L12.8866 16.5L12.8717 16.5L12.8568 16.5L12.842 16.5L12.8271 16.5L12.8122 16.5L12.7973 16.5L12.7825 16.5L12.7676 16.5L12.7527 16.5L12.7379 16.5L12.723 16.5L12.7081 16.5L12.6933 16.5L12.6784 16.5L12.6635 16.5L12.6487 16.5L12.6338 16.5L12.6189 16.5L12.6041 16.5L12.5892 16.5L12.5743 16.5L12.5595 16.5L12.5446 16.5L12.5297 16.5L12.5149 16.5L12.5 16.5L12.4851 16.5L12.4703 16.5L12.4554 16.5L12.4405 16.5L12.4257 16.5L12.4108 16.5L12.3959 16.5L12.3811 16.5L12.3662 16.5L12.3514 16.5L12.3365 16.5L12.3216 16.5L12.3067 16.5L12.2919 16.5L12.277 16.5L12.2621 16.5L12.2473 16.5L12.2324 16.5L12.2175 16.5L12.2027 16.5L12.1878 16.5L12.1729 16.5L12.158 16.5L12.1432 16.5L12.1283 16.5L12.1134 16.5L12.0985 16.5L12.0836 16.5L12.0688 16.5L12.0539 16.5L12.039 16.5L12.0241 16.5L12.0092 16.5L11.9943 16.5L11.9794 16.5L11.9645 16.5L11.9497 16.5L11.9348 16.5L11.9199 16.5L11.905 16.5L11.8901 16.5L11.8752 16.5L11.8603 16.5L11.8453 16.5L11.8304 16.5L11.8155 16.5L11.8006 16.5L11.7857 16.5L11.7708 16.5L11.7559 16.5L11.7409 16.5L11.726 16.5L11.7111 16.5L11.6962 16.5L11.6812 16.5L11.6663 16.5L11.6514 16.5L11.6364 16.5L11.6215 16.5L11.6066 16.5L11.5916 16.5L11.5767 16.5L11.5617 16.5L11.5468 16.5L11.5318 16.5L11.5168 16.5L11.5019 16.5L11.4869 16.5L11.472 16.5L11.457 16.5L11.442 16.5L11.427 16.5L11.4121 16.5L11.3971 16.5L11.3821 16.5L11.3671 16.5L11.3521 16.5L11.3371 16.5L11.3221 16.5L11.3071 16.5L11.2921 16.5L11.2771 16.5L11.2621 16.5L11.247 16.5L11.232 16.5L11.217 16.5L11.202 16.5L11.1869 16.5L11.1719 16.5L11.1569 16.5L11.1418 16.5L11.1268 16.5L11.1117 16.5L11.0967 16.5L11.0816 16.5L11.0665 16.5L11.0515 16.5L11.0364 16.5L11.0213 16.5L11.0062 16.5L10.9911 16.5L10.9761 16.5L10.961 16.5L10.9459 16.5L10.9307 16.5L10.9156 16.5L10.9005 16.5L10.8854 16.5L10.8703 16.5L10.8552 16.5L10.84 16.5L10.8249 16.5L10.8097 16.5L10.7946 16.5L10.7794 16.5L10.7643 16.5L10.7491 16.5L10.7339 16.5L10.7188 16.5L10.7036 16.5L10.6884 16.5L10.6732 16.5L10.658 16.5L10.6428 16.5L10.6276 16.5L10.6124 16.5L10.5972 16.5L10.582 16.5L10.5667 16.5L10.5515 16.5L10.5363 16.5L10.521 16.5L10.5058 16.5L10.4905 16.5L10.4752 16.5L10.46 16.5L10.4447 16.5L10.4294 16.5L10.4141 16.5L10.3988 16.5L10.3835 16.5L10.3682 16.5L10.3529 16.5L10.3376 16.5L10.3223 16.5L10.307 16.5L10.2916 16.5L10.2763 16.5L10.2609 16.5L10.2456 16.5L10.2302 16.5L10.2148 16.5L10.1995 16.5L10.1841 16.5L10.1687 16.5L10.1533 16.5L10.1379 16.5L10.1225 16.5L10.107 16.5L10.0916 16.5L10.0762 16.5L10.0608 16.5L10.0453 16.5L10.0299 16.5L10.0144 16.5L9.99892 16.5L9.98345 16.5L9.96797 16.5L9.95248 16.5L9.93698 16.5L9.92147 16.5L9.90596 16.5L9.89044 16.5L9.87491 16.5L9.85938 16.5L9.84384 16.5L9.82828 16.5L9.81273 16.5L9.79716 16.5L9.78158 16.5L9.766 16.5L9.75041 16.5L9.73481 16.5L9.71921 16.5L9.70359 16.5L9.68797 16.5L9.67234 16.5L9.6567 16.5L9.64105 16.5L9.6254 16.5L9.60973 16.5L9.59406 16.5L9.57838 16.5L9.56269 16.5L9.54699 16.5L9.53128 16.5L9.51557 16.5L9.49984 16.5L9.48411 16.5L9.46837 16.5L9.45262 16.5L9.43686 16.5L9.42109 16.5L9.40532 16.5L9.38953 16.5L9.37373 16.5L9.35793 16.5L9.34212 16.5L9.32629 16.5L9.31046 16.5L9.29462 16.5L9.27877 16.5L9.26291 16.5L9.24704 16.5L9.23116 16.5L9.21528 16.5L9.19938 16.5L9.18347 16.5L9.16756 16.5L9.15163 16.5L9.13569 16.5L9.11975 16.5L9.10379 16.5L9.08783 16.5L9.07185 16.5L9.05587 16.5L9.03987 16.5L9.02387 16.5L9.00785 16.5L8.99183 16.5L8.97579 16.5L8.95974 16.5L8.94369 16.5L8.92762 16.5L8.91155 16.5L8.89546 16.5L8.87936 16.5L8.86326 16.5L8.84714 16.5L8.83101 16.5L8.81487 16.5L8.79872 16.5L8.78256 16.5L8.76639 16.5L8.75021 16.5L8.73401 16.5L8.71781 16.5L8.70159 16.5L8.68537 16.5L8.66913 16.5L8.65289 16.5L8.63663 16.5L8.62036 16.5L8.60408 16.5L8.58778 16.5L8.57148 16.5C4.11375 16.5 0.500002 20.1137 0.500001 24.5714Z" stroke="black"/>
</g>
</g>
<defs>
<filter id="filter0_b_412_601" x="-2.46374" y="-7.46374" width="29.9275" height="29.9275" filterUnits="userSpaceOnUse" color-interpolation-filters="sRGB">
<feFlood flood-opacity="0" result="BackgroundImageFix"/>
<feGaussianBlur in="BackgroundImageFix" stdDeviation="3.73187"/>
<feComposite in2="SourceAlpha" operator="in" result="effect1_backgroundBlur_412_601"/>
<feBlend mode="normal" in="SourceGraphic" in2="effect1_backgroundBlur_412_601" result="shape"/>
</filter>
<filter id="filter1_b_412_601" x="-8.17667" y="7.82333" width="41.3533" height="31.3533" filterUnits="userSpaceOnUse" color-interpolation-filters="sRGB">
<feFlood flood-opacity="0" result="BackgroundImageFix"/>
<feGaussianBlur in="BackgroundImageFix" stdDeviation="4.08834"/>
<feComposite in2="SourceAlpha" operator="in" result="effect1_backgroundBlur_412_601"/>
<feBlend mode="normal" in="SourceGraphic" in2="effect1_backgroundBlur_412_601" result="shape"/>
</filter>
</defs>
</svg>
